<?xml version="1.0" encoding="UTF-8"?>
<svg xmlns="http://www.w3.org/2000/svg" xmlns:xlink="http://www.w3.org/1999/xlink" width="375px" height="60px" viewBox="0 0 375 60" version="1.1">
<g id="surface1">
<path style=" stroke:none;fill-rule:nonzero;fill:rgb(80.392157%,80%,80%);fill-opacity:1;" d="M 14.203125 8.9375 L 17.53125 8.9375 L 32.359375 42.195312 L 27.511719 42.195312 L 23.105469 32.394531 L 9 32.394531 L 4.863281 42.195312 L 0 42.195312 Z M 21.160156 28.179688 L 15.824219 16.203125 L 10.875 28.179688 Z M 21.160156 28.179688 "/>
<path style=" stroke:none;fill-rule:nonzero;fill:rgb(80.392157%,80%,80%);fill-opacity:1;" d="M 62.253906 9.125 L 66.75 9.125 L 66.75 42.195312 L 62.679688 42.195312 L 40.570312 16.726562 L 40.570312 42.195312 L 36.121094 42.195312 L 36.121094 9.125 L 39.957031 9.125 L 62.253906 34.808594 Z M 62.253906 9.125 "/>
<path style=" stroke:none;fill-rule:nonzero;fill:rgb(80.392157%,80%,80%);fill-opacity:1;" d="M 154.640625 9.125 L 173.390625 9.125 L 173.390625 13.339844 L 159.378906 13.339844 L 159.378906 23.421875 L 172.917969 23.421875 L 172.917969 27.660156 L 159.378906 27.660156 L 159.378906 37.929688 L 173.839844 37.929688 L 173.839844 42.144531 L 154.640625 42.144531 Z M 154.640625 9.125 "/>
<path style=" stroke:none;fill-rule:nonzero;fill:rgb(80.392157%,80%,80%);fill-opacity:1;" d="M 178.707031 42.195312 L 178.707031 9.078125 L 189.191406 9.078125 C 192.347656 9.078125 194.867188 9.929688 196.742188 11.632812 C 198.621094 13.339844 199.558594 15.628906 199.558594 18.5 C 199.558594 20.425781 199.078125 22.128906 198.117188 23.609375 C 197.152344 25.09375 195.835938 26.171875 194.164062 26.84375 C 192.488281 27.511719 190.089844 27.847656 186.964844 27.847656 L 183.464844 27.847656 L 183.464844 42.195312 Z M 188.363281 13.292969 L 183.464844 13.292969 L 183.464844 23.636719 L 188.648438 23.636719 C 190.574219 23.636719 192.054688 23.183594 193.097656 22.273438 C 194.140625 21.367188 194.660156 20.070312 194.660156 18.378906 C 194.660156 14.988281 192.558594 13.292969 188.363281 13.292969 Z M 188.363281 13.292969 "/>
<path style=" stroke:none;fill-rule:nonzero;fill:rgb(84.313725%,12.941176%,15.686275%);fill-opacity:1;" d="M 72.621094 23.507812 C 72.621094 10.527344 89.605469 0.0078125 110.558594 0.0078125 C 131.511719 0.0078125 148.496094 10.527344 148.496094 23.507812 C 148.496094 30.042969 145.265625 34.882812 138.320312 39.140625 L 127.929688 31.878906 C 131.367188 28.746094 132.359375 25.570312 132.359375 21.238281 C 132.359375 11.15625 121.203125 2.984375 107.441406 2.984375 C 93.683594 2.984375 82.527344 11.15625 82.527344 21.238281 C 82.527344 31.320312 93.683594 39.492188 107.441406 39.492188 C 110.980469 39.492188 114.074219 39.222656 117.117188 38.25 L 121.015625 46.546875 C 117.535156 47.199219 114.378906 47.011719 110.558594 47.011719 C 89.605469 47.011719 72.621094 36.492188 72.621094 23.507812 "/>
<path style=" stroke:none;fill-rule:nonzero;fill:rgb(2.745098%,65.098039%,29.803922%);fill-opacity:1;" d="M 146.554688 48.933594 L 112.589844 23.402344 L 130.757812 59.992188 Z M 146.554688 48.933594 "/>
<path style=" stroke:none;fill-rule:nonzero;fill:rgb(80.392157%,80%,80%);fill-opacity:1;" d="M 213.796875 9.652344 L 214.628906 9.652344 L 218.339844 17.96875 L 217.125 17.96875 L 216.023438 15.519531 L 212.496094 15.519531 L 211.464844 17.96875 L 210.246094 17.96875 Z M 215.539062 14.464844 L 214.203125 11.46875 L 212.96875 14.464844 Z M 215.539062 14.464844 "/>
<path style=" stroke:none;fill-rule:nonzero;fill:rgb(80.392157%,80%,80%);fill-opacity:1;" d="M 223.226562 13.898438 L 226 13.898438 L 226 17.402344 C 224.984375 17.84375 223.972656 18.0625 222.972656 18.0625 C 221.601562 18.0625 220.507812 17.664062 219.691406 16.867188 C 218.871094 16.066406 218.460938 15.082031 218.460938 13.910156 C 218.460938 12.671875 218.886719 11.648438 219.734375 10.824219 C 220.582031 10.003906 221.644531 9.59375 222.925781 9.59375 C 223.390625 9.59375 223.832031 9.644531 224.25 9.746094 C 224.667969 9.847656 225.199219 10.03125 225.835938 10.300781 L 225.835938 11.507812 C 224.851562 10.933594 223.871094 10.648438 222.902344 10.648438 C 222 10.648438 221.238281 10.957031 220.617188 11.570312 C 219.996094 12.1875 219.6875 12.941406 219.6875 13.839844 C 219.6875 14.777344 219.996094 15.542969 220.617188 16.140625 C 221.238281 16.738281 222.035156 17.035156 223.007812 17.035156 C 223.480469 17.035156 224.046875 16.925781 224.707031 16.707031 L 224.816406 16.671875 L 224.816406 14.949219 L 223.226562 14.949219 Z M 223.226562 13.898438 "/>
<path style=" stroke:none;fill-rule:nonzero;fill:rgb(80.392157%,80%,80%);fill-opacity:1;" d="M 227.730469 9.699219 L 232.417969 9.699219 L 232.417969 10.753906 L 228.910156 10.753906 L 228.910156 13.273438 L 232.296875 13.273438 L 232.296875 14.335938 L 228.910156 14.335938 L 228.910156 16.902344 L 232.527344 16.902344 L 232.527344 17.957031 L 227.730469 17.957031 Z M 230.621094 7.261719 L 231.765625 9.09375 L 231.101562 9.09375 L 230.039062 8.042969 L 229.03125 9.09375 L 228.394531 9.09375 L 229.496094 7.261719 Z M 230.621094 7.261719 "/>
<path style=" stroke:none;fill-rule:nonzero;fill:rgb(80.392157%,80%,80%);fill-opacity:1;" d="M 240.359375 9.699219 L 241.484375 9.699219 L 241.484375 17.96875 L 240.464844 17.96875 L 234.941406 11.601562 L 234.941406 17.96875 L 233.828125 17.96875 L 233.828125 9.699219 L 234.785156 9.699219 L 240.359375 16.121094 Z M 240.359375 9.699219 "/>
<path style=" stroke:none;fill-rule:nonzero;fill:rgb(80.392157%,80%,80%);fill-opacity:1;" d="M 250.378906 16.050781 L 250.378906 17.351562 C 249.507812 17.828125 248.507812 18.0625 247.371094 18.0625 C 246.445312 18.0625 245.664062 17.878906 245.019531 17.507812 C 244.378906 17.136719 243.867188 16.625 243.492188 15.976562 C 243.117188 15.324219 242.933594 14.617188 242.933594 13.863281 C 242.933594 12.660156 243.359375 11.648438 244.21875 10.828125 C 245.078125 10.007812 246.136719 9.597656 247.394531 9.597656 C 248.261719 9.597656 249.226562 9.824219 250.289062 10.277344 L 250.289062 11.546875 C 249.320312 10.996094 248.378906 10.722656 247.453125 10.722656 C 246.507812 10.722656 245.722656 11.019531 245.09375 11.617188 C 244.472656 12.214844 244.15625 12.960938 244.15625 13.863281 C 244.15625 14.769531 244.464844 15.515625 245.082031 16.101562 C 245.695312 16.683594 246.484375 16.976562 247.441406 16.976562 C 248.445312 16.972656 249.421875 16.667969 250.378906 16.050781 Z M 250.378906 16.050781 "/>
<path style=" stroke:none;fill-rule:nonzero;fill:rgb(80.392157%,80%,80%);fill-opacity:1;" d="M 251.84375 9.699219 L 253.027344 9.699219 L 253.027344 17.96875 L 251.84375 17.96875 Z M 251.84375 9.699219 "/>
<path style=" stroke:none;fill-rule:nonzero;fill:rgb(80.392157%,80%,80%);fill-opacity:1;" d="M 257.503906 9.652344 L 258.335938 9.652344 L 262.042969 17.96875 L 260.832031 17.96875 L 259.726562 15.519531 L 256.199219 15.519531 L 255.167969 17.96875 L 253.949219 17.96875 Z M 259.242188 14.464844 L 257.910156 11.46875 L 256.671875 14.464844 Z M 259.242188 14.464844 "/>
<path style=" stroke:none;fill-rule:nonzero;fill:rgb(80.392157%,80%,80%);fill-opacity:1;" d="M 272.882812 9.699219 L 274.007812 9.699219 L 274.007812 17.96875 L 272.988281 17.96875 L 267.464844 11.601562 L 267.464844 17.96875 L 266.351562 17.96875 L 266.351562 9.699219 L 267.308594 9.699219 L 272.882812 16.121094 Z M 272.882812 9.699219 "/>
<path style=" stroke:none;fill-rule:nonzero;fill:rgb(80.392157%,80%,80%);fill-opacity:1;" d="M 278.417969 9.652344 L 279.246094 9.652344 L 282.957031 17.96875 L 281.742188 17.96875 L 280.640625 15.519531 L 277.113281 15.519531 L 276.082031 17.96875 L 274.863281 17.96875 Z M 280.15625 14.464844 L 278.820312 11.46875 L 277.585938 14.464844 Z M 280.15625 14.464844 "/>
<path style=" stroke:none;fill-rule:nonzero;fill:rgb(80.392157%,80%,80%);fill-opacity:1;" d="M 290.5 16.050781 L 290.5 17.351562 C 289.628906 17.828125 288.628906 18.0625 287.492188 18.0625 C 286.570312 18.0625 285.785156 17.878906 285.144531 17.507812 C 284.5 17.136719 283.992188 16.625 283.617188 15.976562 C 283.242188 15.324219 283.054688 14.617188 283.054688 13.863281 C 283.054688 12.660156 283.484375 11.648438 284.34375 10.828125 C 285.199219 10.007812 286.257812 9.597656 287.515625 9.597656 C 288.382812 9.597656 289.351562 9.824219 290.410156 10.277344 L 290.410156 11.546875 C 289.445312 10.996094 288.5 10.722656 287.578125 10.722656 C 286.628906 10.722656 285.84375 11.019531 285.21875 11.617188 C 284.59375 12.214844 284.277344 12.960938 284.277344 13.863281 C 284.277344 14.769531 284.585938 15.515625 285.203125 16.101562 C 285.816406 16.683594 286.605469 16.976562 287.5625 16.976562 C 288.566406 16.972656 289.542969 16.667969 290.5 16.050781 Z M 290.5 16.050781 "/>
<path style=" stroke:none;fill-rule:nonzero;fill:rgb(80.392157%,80%,80%);fill-opacity:1;" d="M 291.96875 9.699219 L 293.148438 9.699219 L 293.148438 17.96875 L 291.96875 17.96875 Z M 291.96875 9.699219 "/>
<path style=" stroke:none;fill-rule:nonzero;fill:rgb(80.392157%,80%,80%);fill-opacity:1;" d="M 299.039062 9.582031 C 300.316406 9.582031 301.382812 9.988281 302.230469 10.796875 C 303.082031 11.605469 303.503906 12.617188 303.503906 13.835938 C 303.503906 15.054688 303.078125 16.066406 302.21875 16.863281 C 301.363281 17.664062 300.28125 18.0625 298.976562 18.0625 C 297.730469 18.0625 296.691406 17.664062 295.863281 16.863281 C 295.03125 16.066406 294.617188 15.066406 294.617188 13.859375 C 294.617188 12.625 295.035156 11.605469 295.871094 10.792969 C 296.707031 9.988281 297.761719 9.582031 299.039062 9.582031 Z M 299.085938 10.707031 C 298.140625 10.707031 297.363281 11.003906 296.757812 11.59375 C 296.148438 12.1875 295.839844 12.941406 295.839844 13.863281 C 295.839844 14.753906 296.148438 15.496094 296.757812 16.085938 C 297.371094 16.679688 298.136719 16.976562 299.054688 16.976562 C 299.976562 16.976562 300.746094 16.671875 301.363281 16.070312 C 301.980469 15.46875 302.289062 14.714844 302.289062 13.816406 C 302.289062 12.9375 301.980469 12.203125 301.363281 11.605469 C 300.746094 11.007812 299.988281 10.707031 299.085938 10.707031 Z M 299.085938 10.707031 "/>
<path style=" stroke:none;fill-rule:nonzero;fill:rgb(80.392157%,80%,80%);fill-opacity:1;" d="M 311.53125 9.699219 L 312.65625 9.699219 L 312.65625 17.96875 L 311.636719 17.96875 L 306.113281 11.601562 L 306.113281 17.96875 L 305 17.96875 L 305 9.699219 L 305.957031 9.699219 L 311.53125 16.121094 Z M 311.53125 9.699219 "/>
<path style=" stroke:none;fill-rule:nonzero;fill:rgb(80.392157%,80%,80%);fill-opacity:1;" d="M 317.0625 9.652344 L 317.894531 9.652344 L 321.605469 17.96875 L 320.390625 17.96875 L 319.289062 15.519531 L 315.761719 15.519531 L 314.730469 17.96875 L 313.511719 17.96875 Z M 318.804688 14.464844 L 317.46875 11.46875 L 316.234375 14.464844 Z M 318.804688 14.464844 "/>
<path style=" stroke:none;fill-rule:nonzero;fill:rgb(80.392157%,80%,80%);fill-opacity:1;" d="M 322.507812 9.699219 L 323.691406 9.699219 L 323.691406 16.890625 L 327.414062 16.890625 L 327.414062 17.96875 L 322.507812 17.96875 Z M 322.507812 9.699219 "/>
<path style=" stroke:none;fill-rule:nonzero;fill:rgb(80.392157%,80%,80%);fill-opacity:1;" d="M 211.09375 30.089844 L 211.09375 21.808594 L 213.714844 21.808594 C 214.503906 21.808594 215.136719 22.023438 215.601562 22.449219 C 216.074219 22.875 216.308594 23.445312 216.308594 24.164062 C 216.308594 24.644531 216.1875 25.070312 215.949219 25.441406 C 215.707031 25.8125 215.378906 26.082031 214.960938 26.25 C 214.542969 26.417969 213.941406 26.5 213.160156 26.5 L 212.285156 26.5 L 212.285156 30.085938 L 211.09375 30.085938 Z M 213.507812 22.863281 L 212.285156 22.863281 L 212.285156 25.449219 L 213.578125 25.449219 C 214.0625 25.449219 214.433594 25.335938 214.691406 25.109375 C 214.953125 24.878906 215.082031 24.558594 215.082031 24.132812 C 215.082031 23.285156 214.558594 22.863281 213.507812 22.863281 Z M 213.507812 22.863281 "/>
<path style=" stroke:none;fill-rule:nonzero;fill:rgb(80.392157%,80%,80%);fill-opacity:1;" d="M 219.007812 21.773438 L 219.839844 21.773438 L 223.546875 30.089844 L 222.335938 30.089844 L 221.230469 27.636719 L 217.703125 27.636719 L 216.671875 30.089844 L 215.457031 30.089844 Z M 220.746094 26.585938 L 219.414062 23.589844 L 218.175781 26.585938 Z M 220.746094 26.585938 "/>
<path style=" stroke:none;fill-rule:nonzero;fill:rgb(80.392157%,80%,80%);fill-opacity:1;" d="M 224.488281 30.089844 L 224.488281 21.820312 L 226.558594 21.820312 C 227.394531 21.820312 228.058594 22.027344 228.550781 22.441406 C 229.039062 22.855469 229.285156 23.417969 229.285156 24.121094 C 229.285156 24.601562 229.167969 25.019531 228.925781 25.371094 C 228.683594 25.722656 228.339844 25.984375 227.890625 26.15625 C 228.152344 26.332031 228.414062 26.566406 228.664062 26.867188 C 228.917969 27.167969 229.273438 27.691406 229.730469 28.4375 C 230.019531 28.90625 230.246094 29.257812 230.421875 29.496094 L 230.859375 30.085938 L 229.453125 30.085938 L 229.089844 29.542969 C 229.078125 29.523438 229.054688 29.488281 229.019531 29.441406 L 228.789062 29.117188 L 228.421875 28.511719 L 228.027344 27.867188 C 227.78125 27.527344 227.558594 27.257812 227.355469 27.054688 C 227.152344 26.855469 226.96875 26.710938 226.804688 26.621094 C 226.640625 26.535156 226.367188 26.488281 225.976562 26.488281 L 225.671875 26.488281 L 225.671875 30.085938 L 224.488281 30.085938 Z M 226.027344 22.828125 L 225.667969 22.828125 L 225.667969 25.4375 L 226.121094 25.4375 C 226.71875 25.4375 227.132812 25.386719 227.351562 25.285156 C 227.574219 25.179688 227.75 25.027344 227.875 24.820312 C 227.996094 24.613281 228.058594 24.378906 228.058594 24.113281 C 228.058594 23.851562 227.992188 23.617188 227.855469 23.40625 C 227.714844 23.195312 227.523438 23.046875 227.269531 22.960938 C 227.019531 22.871094 226.605469 22.828125 226.027344 22.828125 Z M 226.027344 22.828125 "/>
<path style=" stroke:none;fill-rule:nonzero;fill:rgb(80.392157%,80%,80%);fill-opacity:1;" d="M 234.410156 21.773438 L 235.242188 21.773438 L 238.949219 30.089844 L 237.738281 30.089844 L 236.636719 27.636719 L 233.109375 27.636719 L 232.078125 30.089844 L 230.859375 30.089844 Z M 236.152344 26.585938 L 234.816406 23.589844 L 233.582031 26.585938 Z M 236.152344 26.585938 "/>
<path style=" stroke:none;fill-rule:nonzero;fill:rgb(80.392157%,80%,80%);fill-opacity:1;" d="M 244.648438 21.773438 L 245.480469 21.773438 L 249.1875 30.089844 L 247.976562 30.089844 L 246.875 27.636719 L 243.347656 27.636719 L 242.3125 30.089844 L 241.097656 30.089844 Z M 246.386719 26.585938 L 245.054688 23.589844 L 243.816406 26.585938 Z M 246.386719 26.585938 "/>
<path style=" stroke:none;fill-rule:nonzero;fill:rgb(80.392157%,80%,80%);fill-opacity:1;" d="M 261.792969 30.609375 L 260.605469 31.761719 C 260.234375 31.742188 259.847656 31.675781 259.445312 31.566406 C 259.039062 31.453125 258.628906 31.296875 258.214844 31.101562 C 257.796875 30.902344 257.242188 30.566406 256.550781 30.089844 C 255.542969 29.90625 254.714844 29.429688 254.0625 28.65625 C 253.410156 27.882812 253.085938 26.992188 253.085938 25.980469 C 253.085938 24.746094 253.503906 23.726562 254.34375 22.917969 C 255.183594 22.109375 256.246094 21.703125 257.53125 21.703125 C 258.808594 21.703125 259.867188 22.105469 260.714844 22.910156 C 261.558594 23.710938 261.984375 24.71875 261.984375 25.9375 C 261.984375 26.957031 261.664062 27.855469 261.027344 28.628906 C 260.386719 29.402344 259.558594 29.890625 258.546875 30.089844 L 258.859375 30.207031 C 259.835938 30.582031 260.535156 30.769531 260.964844 30.769531 C 261.203125 30.769531 261.476562 30.714844 261.792969 30.609375 Z M 257.53125 22.828125 C 256.597656 22.828125 255.832031 23.128906 255.222656 23.726562 C 254.617188 24.328125 254.3125 25.082031 254.3125 25.992188 C 254.3125 26.882812 254.617188 27.621094 255.230469 28.210938 C 255.839844 28.800781 256.605469 29.09375 257.53125 29.09375 C 258.441406 29.09375 259.207031 28.792969 259.828125 28.1875 C 260.453125 27.585938 260.765625 26.839844 260.765625 25.957031 C 260.765625 25.054688 260.457031 24.304688 259.847656 23.714844 C 259.234375 23.121094 258.464844 22.828125 257.53125 22.828125 Z M 257.53125 22.828125 "/>
<path style=" stroke:none;fill-rule:nonzero;fill:rgb(80.392157%,80%,80%);fill-opacity:1;" d="M 269.191406 21.820312 L 270.378906 21.820312 L 270.378906 26.511719 C 270.378906 27.148438 270.332031 27.628906 270.238281 27.949219 C 270.148438 28.273438 270.035156 28.542969 269.898438 28.757812 C 269.761719 28.972656 269.59375 29.167969 269.394531 29.335938 C 268.742188 29.898438 267.882812 30.183594 266.828125 30.183594 C 265.75 30.183594 264.886719 29.902344 264.238281 29.34375 C 264.039062 29.167969 263.871094 28.972656 263.734375 28.757812 C 263.601562 28.542969 263.488281 28.28125 263.398438 27.96875 C 263.308594 27.65625 263.265625 27.167969 263.265625 26.5 L 263.265625 21.820312 L 264.457031 21.820312 L 264.457031 26.511719 C 264.457031 27.289062 264.542969 27.832031 264.722656 28.132812 C 264.902344 28.4375 265.167969 28.679688 265.53125 28.863281 C 265.894531 29.046875 266.324219 29.140625 266.816406 29.140625 C 267.519531 29.140625 268.09375 28.957031 268.53125 28.589844 C 268.765625 28.390625 268.933594 28.160156 269.035156 27.890625 C 269.140625 27.625 269.191406 27.164062 269.191406 26.511719 Z M 269.191406 21.820312 "/>
<path style=" stroke:none;fill-rule:nonzero;fill:rgb(80.392157%,80%,80%);fill-opacity:1;" d="M 274.355469 21.773438 L 275.1875 21.773438 L 278.894531 30.089844 L 277.683594 30.089844 L 276.582031 27.636719 L 273.054688 27.636719 L 272.019531 30.089844 L 270.804688 30.089844 Z M 276.09375 26.585938 L 274.761719 23.589844 L 273.523438 26.585938 Z M 276.09375 26.585938 "/>
<path style=" stroke:none;fill-rule:nonzero;fill:rgb(80.392157%,80%,80%);fill-opacity:1;" d="M 279.800781 21.820312 L 280.984375 21.820312 L 280.984375 29.011719 L 284.707031 29.011719 L 284.707031 30.089844 L 279.800781 30.089844 Z M 279.800781 21.820312 "/>
<path style=" stroke:none;fill-rule:nonzero;fill:rgb(80.392157%,80%,80%);fill-opacity:1;" d="M 285.753906 21.820312 L 286.933594 21.820312 L 286.933594 30.089844 L 285.753906 30.089844 Z M 285.753906 21.820312 "/>
<path style=" stroke:none;fill-rule:nonzero;fill:rgb(80.392157%,80%,80%);fill-opacity:1;" d="M 288.785156 21.820312 L 293.191406 21.820312 L 293.191406 22.875 L 289.964844 22.875 L 289.964844 25.183594 L 293.191406 25.183594 L 293.191406 26.234375 L 289.964844 26.234375 L 289.964844 30.085938 L 288.785156 30.085938 Z M 288.785156 21.820312 "/>
<path style=" stroke:none;fill-rule:nonzero;fill:rgb(80.392157%,80%,80%);fill-opacity:1;" d="M 294.46875 21.820312 L 295.652344 21.820312 L 295.652344 30.089844 L 294.46875 30.089844 Z M 294.46875 21.820312 "/>
<path style=" stroke:none;fill-rule:nonzero;fill:rgb(80.392157%,80%,80%);fill-opacity:1;" d="M 304.613281 28.171875 L 304.613281 29.472656 C 303.746094 29.945312 302.746094 30.183594 301.609375 30.183594 C 300.683594 30.183594 299.902344 29.996094 299.257812 29.628906 C 298.617188 29.257812 298.105469 28.746094 297.730469 28.09375 C 297.355469 27.445312 297.167969 26.738281 297.167969 25.980469 C 297.167969 24.777344 297.597656 23.765625 298.457031 22.945312 C 299.3125 22.125 300.371094 21.714844 301.632812 21.714844 C 302.5 21.714844 303.464844 21.941406 304.523438 22.398438 L 304.523438 23.667969 C 303.558594 23.117188 302.617188 22.839844 301.691406 22.839844 C 300.742188 22.839844 299.957031 23.140625 299.332031 23.734375 C 298.707031 24.335938 298.394531 25.082031 298.394531 25.980469 C 298.394531 26.886719 298.703125 27.636719 299.316406 28.21875 C 299.933594 28.804688 300.71875 29.09375 301.679688 29.09375 C 302.679688 29.09375 303.660156 28.785156 304.613281 28.171875 Z M 304.613281 28.171875 "/>
<path style=" stroke:none;fill-rule:nonzero;fill:rgb(80.392157%,80%,80%);fill-opacity:1;" d="M 309.011719 21.773438 L 309.84375 21.773438 L 313.550781 30.089844 L 312.339844 30.089844 L 311.234375 27.636719 L 307.707031 27.636719 L 306.675781 30.089844 L 305.457031 30.089844 Z M 310.75 26.585938 L 309.417969 23.589844 L 308.179688 26.585938 Z M 310.75 26.585938 "/>
<path style=" stroke:none;fill-rule:nonzero;fill:rgb(80.392157%,80%,80%);fill-opacity:1;" d="M 318.550781 30.183594 L 318.519531 30.285156 C 318.734375 30.335938 318.898438 30.433594 319.019531 30.582031 C 319.140625 30.726562 319.199219 30.890625 319.199219 31.078125 C 319.199219 31.378906 319.082031 31.632812 318.839844 31.84375 C 318.597656 32.054688 318.214844 32.160156 317.683594 32.160156 C 317.539062 32.160156 317.410156 32.152344 317.300781 32.128906 L 317.300781 31.460938 C 317.503906 31.476562 317.628906 31.484375 317.679688 31.484375 C 317.90625 31.484375 318.082031 31.441406 318.207031 31.355469 C 318.28125 31.304688 318.320312 31.238281 318.320312 31.152344 C 318.320312 31.058594 318.277344 30.980469 318.199219 30.917969 C 318.117188 30.855469 317.96875 30.820312 317.75 30.820312 C 317.707031 30.820312 317.660156 30.828125 317.617188 30.839844 L 317.863281 30.140625 C 317.234375 30.070312 316.691406 29.898438 316.222656 29.625 C 315.578125 29.25 315.066406 28.738281 314.695312 28.089844 C 314.320312 27.441406 314.132812 26.738281 314.132812 25.980469 C 314.132812 24.777344 314.5625 23.765625 315.421875 22.945312 C 316.277344 22.125 317.335938 21.714844 318.597656 21.714844 C 319.464844 21.714844 320.429688 21.941406 321.488281 22.394531 L 321.488281 23.667969 C 320.523438 23.117188 319.578125 22.839844 318.65625 22.839844 C 317.707031 22.839844 316.921875 23.136719 316.296875 23.734375 C 315.671875 24.332031 315.359375 25.082031 315.359375 25.980469 C 315.359375 26.886719 315.667969 27.632812 316.28125 28.21875 C 316.898438 28.800781 317.683594 29.09375 318.644531 29.09375 C 319.644531 29.09375 320.625 28.785156 321.578125 28.171875 L 321.578125 29.472656 C 320.710938 29.945312 319.707031 30.183594 318.570312 30.183594 Z M 318.550781 30.183594 "/>
<path style=" stroke:none;fill-rule:nonzero;fill:rgb(80.392157%,80%,80%);fill-opacity:1;" d="M 325.675781 21.773438 L 326.507812 21.773438 L 330.214844 30.089844 L 329.003906 30.089844 L 327.898438 27.636719 L 324.371094 27.636719 L 323.339844 30.089844 L 322.121094 30.089844 Z M 327.835938 19.570312 C 327.832031 20.050781 327.71875 20.421875 327.503906 20.691406 C 327.339844 20.902344 327.128906 21.003906 326.882812 21.003906 C 326.664062 21.003906 326.375 20.925781 326.003906 20.769531 C 325.640625 20.609375 325.363281 20.53125 325.179688 20.53125 C 325.074219 20.53125 324.988281 20.570312 324.910156 20.648438 C 324.835938 20.726562 324.789062 20.847656 324.777344 21.003906 L 324.277344 21.003906 C 324.339844 20.449219 324.453125 20.074219 324.621094 19.890625 C 324.785156 19.703125 324.996094 19.609375 325.25 19.609375 C 325.476562 19.609375 325.851562 19.714844 326.367188 19.921875 C 326.628906 20.027344 326.820312 20.082031 326.933594 20.082031 C 327.042969 20.082031 327.136719 20.042969 327.214844 19.964844 C 327.292969 19.890625 327.34375 19.757812 327.375 19.570312 Z M 327.414062 26.585938 L 326.082031 23.589844 L 324.84375 26.585938 Z M 327.414062 26.585938 "/>
<path style=" stroke:none;fill-rule:nonzero;fill:rgb(80.392157%,80%,80%);fill-opacity:1;" d="M 335.175781 21.703125 C 336.453125 21.703125 337.519531 22.109375 338.367188 22.914062 C 339.214844 23.722656 339.640625 24.738281 339.640625 25.957031 C 339.640625 27.175781 339.214844 28.183594 338.355469 28.984375 C 337.496094 29.78125 336.414062 30.183594 335.113281 30.183594 C 333.863281 30.183594 332.828125 29.78125 331.996094 28.984375 C 331.167969 28.183594 330.753906 27.183594 330.753906 25.980469 C 330.753906 24.746094 331.171875 23.722656 332.007812 22.914062 C 332.84375 22.109375 333.898438 21.703125 335.175781 21.703125 Z M 335.222656 22.828125 C 334.277344 22.828125 333.5 23.125 332.890625 23.714844 C 332.28125 24.304688 331.976562 25.0625 331.976562 25.980469 C 331.976562 26.875 332.285156 27.613281 332.894531 28.207031 C 333.507812 28.800781 334.269531 29.09375 335.191406 29.09375 C 336.113281 29.09375 336.882812 28.792969 337.5 28.1875 C 338.117188 27.585938 338.421875 26.835938 338.421875 25.933594 C 338.421875 25.058594 338.117188 24.320312 337.5 23.722656 C 336.878906 23.125 336.121094 22.828125 335.222656 22.828125 Z M 335.222656 22.828125 "/>
<path style=" stroke:none;fill-rule:nonzero;fill:rgb(80.392157%,80%,80%);fill-opacity:1;" d="M 344.464844 21.820312 L 349.152344 21.820312 L 349.152344 22.875 L 345.648438 22.875 L 345.648438 25.394531 L 349.03125 25.394531 L 349.03125 26.453125 L 345.648438 26.453125 L 345.648438 29.023438 L 349.265625 29.023438 L 349.265625 30.074219 L 344.464844 30.074219 Z M 344.464844 21.820312 "/>
<path style=" stroke:none;fill-rule:nonzero;fill:rgb(80.392157%,80%,80%);fill-opacity:1;" d="M 357.949219 21.703125 C 359.222656 21.703125 360.289062 22.109375 361.136719 22.914062 C 361.988281 23.722656 362.410156 24.738281 362.410156 25.957031 C 362.410156 27.175781 361.984375 28.183594 361.125 28.984375 C 360.269531 29.78125 359.1875 30.183594 357.882812 30.183594 C 356.636719 30.183594 355.597656 29.78125 354.769531 28.984375 C 353.9375 28.183594 353.523438 27.183594 353.523438 25.980469 C 353.523438 24.746094 353.941406 23.722656 354.777344 22.914062 C 355.613281 22.109375 356.667969 21.703125 357.949219 21.703125 Z M 357.992188 22.828125 C 357.046875 22.828125 356.269531 23.125 355.664062 23.714844 C 355.054688 24.304688 354.746094 25.0625 354.746094 25.980469 C 354.746094 26.875 355.054688 27.613281 355.664062 28.207031 C 356.277344 28.800781 357.042969 29.09375 357.960938 29.09375 C 358.882812 29.09375 359.652344 28.792969 360.269531 28.1875 C 360.886719 27.585938 361.195312 26.835938 361.195312 25.933594 C 361.195312 25.058594 360.886719 24.320312 360.269531 23.722656 C 359.652344 23.125 358.894531 22.828125 357.992188 22.828125 Z M 357.992188 22.828125 "/>
<path style=" stroke:none;fill-rule:nonzero;fill:rgb(80.392157%,80%,80%);fill-opacity:1;" d="M 217.289062 40.695312 L 217.289062 42.207031 L 211.195312 42.207031 L 211.195312 33.941406 L 217.207031 33.941406 L 217.207031 35.457031 L 213.253906 35.457031 L 213.253906 37.191406 L 217.023438 37.191406 L 217.023438 38.707031 L 213.253906 38.707031 L 213.253906 40.695312 Z M 217.289062 40.695312 "/>
<path style=" stroke:none;fill-rule:nonzero;fill:rgb(80.392157%,80%,80%);fill-opacity:1;" d="M 227.238281 33.941406 L 227.238281 42.207031 L 225.5 42.207031 L 220.933594 36.910156 L 220.933594 42.207031 L 218.875 42.207031 L 218.875 33.941406 L 220.761719 33.941406 L 225.179688 38.996094 L 225.179688 33.941406 Z M 227.238281 33.941406 "/>
<path style=" stroke:none;fill-rule:nonzero;fill:rgb(80.392157%,80%,80%);fill-opacity:1;" d="M 234.707031 34.472656 L 234.707031 36.089844 C 233.609375 35.597656 232.734375 35.351562 232.085938 35.351562 C 231.714844 35.351562 231.417969 35.410156 231.203125 35.535156 C 230.980469 35.660156 230.871094 35.824219 230.871094 36.03125 C 230.871094 36.1875 230.949219 36.339844 231.109375 36.480469 C 231.265625 36.621094 231.652344 36.808594 232.261719 37.03125 C 232.875 37.253906 233.363281 37.464844 233.730469 37.65625 C 234.097656 37.851562 234.414062 38.125 234.679688 38.472656 C 234.945312 38.824219 235.078125 39.269531 235.078125 39.804688 C 235.078125 40.570312 234.789062 41.179688 234.207031 41.632812 C 233.625 42.089844 232.859375 42.316406 231.910156 42.316406 C 230.882812 42.316406 229.886719 42.046875 228.925781 41.515625 L 228.925781 39.734375 C 229.476562 40.105469 229.964844 40.375 230.390625 40.546875 C 230.816406 40.714844 231.269531 40.800781 231.75 40.800781 C 232.554688 40.800781 232.960938 40.546875 232.960938 40.039062 C 232.960938 39.863281 232.878906 39.699219 232.71875 39.546875 C 232.554688 39.394531 232.167969 39.207031 231.546875 38.984375 C 230.929688 38.761719 230.441406 38.558594 230.082031 38.371094 C 229.71875 38.179688 229.410156 37.910156 229.144531 37.558594 C 228.882812 37.207031 228.75 36.757812 228.75 36.207031 C 228.75 35.496094 229.039062 34.925781 229.609375 34.488281 C 230.183594 34.054688 230.949219 33.835938 231.90625 33.835938 C 232.789062 33.835938 233.722656 34.046875 234.707031 34.472656 Z M 234.707031 34.472656 "/>
<path style=" stroke:none;fill-rule:nonzero;fill:rgb(80.392157%,80%,80%);fill-opacity:1;" d="M 238.546875 33.941406 L 238.546875 42.207031 L 236.488281 42.207031 L 236.488281 33.941406 Z M 238.546875 33.941406 "/>
<path style=" stroke:none;fill-rule:nonzero;fill:rgb(80.392157%,80%,80%);fill-opacity:1;" d="M 248.824219 33.941406 L 248.824219 42.207031 L 247.085938 42.207031 L 242.523438 36.910156 L 242.523438 42.207031 L 240.464844 42.207031 L 240.464844 33.941406 L 242.351562 33.941406 L 246.765625 38.996094 L 246.765625 33.941406 Z M 248.824219 33.941406 "/>
<path style=" stroke:none;fill-rule:nonzero;fill:rgb(80.392157%,80%,80%);fill-opacity:1;" d="M 255.066406 33.835938 C 256.476562 33.835938 257.617188 34.261719 258.488281 35.109375 C 259.363281 35.960938 259.796875 36.949219 259.796875 38.078125 C 259.796875 39.222656 259.355469 40.214844 258.46875 41.054688 C 257.585938 41.894531 256.453125 42.316406 255.066406 42.316406 C 253.667969 42.316406 252.527344 41.898438 251.648438 41.0625 C 250.769531 40.226562 250.328125 39.230469 250.328125 38.078125 C 250.328125 36.945312 250.765625 35.957031 251.640625 35.109375 C 252.515625 34.257812 253.65625 33.835938 255.066406 33.835938 Z M 255.066406 40.597656 C 255.847656 40.597656 256.476562 40.367188 256.957031 39.902344 C 257.433594 39.4375 257.671875 38.832031 257.671875 38.078125 C 257.671875 37.320312 257.433594 36.710938 256.957031 36.25 C 256.476562 35.785156 255.847656 35.554688 255.066406 35.554688 C 254.285156 35.554688 253.652344 35.785156 253.171875 36.25 C 252.691406 36.710938 252.453125 37.320312 252.453125 38.078125 C 252.453125 38.832031 252.691406 39.441406 253.171875 39.902344 C 253.652344 40.367188 254.285156 40.597656 255.066406 40.597656 Z M 255.066406 40.597656 "/>
<path style=" stroke:none;fill-rule:nonzero;fill:rgb(80.392157%,80%,80%);fill-opacity:1;" d="M 264.738281 33.941406 L 268.425781 33.941406 C 269.261719 33.941406 269.925781 34.183594 270.421875 34.667969 C 270.914062 35.15625 271.160156 35.730469 271.160156 36.390625 C 271.160156 37.078125 270.917969 37.667969 270.429688 38.15625 C 269.941406 38.644531 269.277344 38.890625 268.4375 38.890625 L 266.800781 38.890625 L 266.800781 42.210938 L 264.738281 42.210938 Z M 266.796875 35.457031 L 266.796875 37.375 L 267.757812 37.375 C 268.613281 37.375 269.039062 37.054688 269.039062 36.414062 C 269.039062 36.054688 268.925781 35.804688 268.695312 35.664062 C 268.46875 35.527344 268.074219 35.457031 267.523438 35.457031 Z M 266.796875 35.457031 "/>
<path style=" stroke:none;fill-rule:nonzero;fill:rgb(80.392157%,80%,80%);fill-opacity:1;" d="M 272.605469 33.941406 L 276.296875 33.941406 C 277.097656 33.941406 277.75 34.171875 278.25 34.636719 C 278.75 35.097656 279 35.660156 279 36.320312 C 279 37.230469 278.527344 37.902344 277.582031 38.339844 C 277.996094 38.53125 278.390625 39.039062 278.765625 39.867188 C 279.140625 40.695312 279.5 41.476562 279.847656 42.207031 L 277.589844 42.207031 C 277.453125 41.933594 277.21875 41.417969 276.882812 40.652344 C 276.546875 39.886719 276.261719 39.394531 276.023438 39.175781 C 275.78125 38.960938 275.527344 38.851562 275.253906 38.851562 L 274.660156 38.851562 L 274.660156 42.207031 L 272.601562 42.207031 L 272.601562 33.941406 Z M 274.664062 35.457031 L 274.664062 37.335938 L 275.753906 37.335938 C 276.097656 37.335938 276.375 37.253906 276.578125 37.09375 C 276.78125 36.929688 276.882812 36.695312 276.882812 36.390625 C 276.882812 35.769531 276.488281 35.457031 275.707031 35.457031 Z M 274.664062 35.457031 "/>
<path style=" stroke:none;fill-rule:nonzero;fill:rgb(80.392157%,80%,80%);fill-opacity:1;" d="M 285.007812 33.835938 C 286.414062 33.835938 287.554688 34.261719 288.429688 35.109375 C 289.300781 35.960938 289.734375 36.949219 289.734375 38.078125 C 289.734375 39.222656 289.292969 40.214844 288.410156 41.054688 C 287.527344 41.894531 286.390625 42.316406 285.007812 42.316406 C 283.605469 42.316406 282.464844 41.898438 281.585938 41.0625 C 280.707031 40.226562 280.265625 39.230469 280.265625 38.078125 C 280.265625 36.945312 280.703125 35.957031 281.578125 35.109375 C 282.453125 34.257812 283.59375 33.835938 285.007812 33.835938 Z M 285.007812 40.597656 C 285.789062 40.597656 286.417969 40.367188 286.894531 39.902344 C 287.371094 39.4375 287.609375 38.832031 287.609375 38.078125 C 287.609375 37.320312 287.371094 36.710938 286.894531 36.25 C 286.417969 35.785156 285.789062 35.554688 285.007812 35.554688 C 284.222656 35.554688 283.589844 35.785156 283.109375 36.25 C 282.632812 36.710938 282.390625 37.320312 282.390625 38.078125 C 282.390625 38.832031 282.632812 39.441406 283.109375 39.902344 C 283.589844 40.367188 284.222656 40.597656 285.007812 40.597656 Z M 285.007812 40.597656 "/>
<path style=" stroke:none;fill-rule:nonzero;fill:rgb(80.392157%,80%,80%);fill-opacity:1;" d="M 296.921875 33.941406 L 296.921875 35.457031 L 293.285156 35.457031 L 293.285156 37.300781 L 296.921875 37.300781 L 296.921875 38.816406 L 293.285156 38.816406 L 293.285156 42.207031 L 291.226562 42.207031 L 291.226562 33.941406 Z M 296.921875 33.941406 "/>
<path style=" stroke:none;fill-rule:nonzero;fill:rgb(80.392157%,80%,80%);fill-opacity:1;" d="M 300.675781 33.941406 L 300.675781 42.207031 L 298.617188 42.207031 L 298.617188 33.941406 Z M 300.675781 33.941406 "/>
<path style=" stroke:none;fill-rule:nonzero;fill:rgb(80.392157%,80%,80%);fill-opacity:1;" d="M 308.191406 34.472656 L 308.191406 36.089844 C 307.097656 35.597656 306.222656 35.351562 305.574219 35.351562 C 305.199219 35.351562 304.90625 35.410156 304.6875 35.535156 C 304.46875 35.660156 304.359375 35.824219 304.359375 36.03125 C 304.359375 36.1875 304.4375 36.339844 304.597656 36.480469 C 304.753906 36.621094 305.140625 36.808594 305.75 37.03125 C 306.363281 37.253906 306.851562 37.464844 307.21875 37.65625 C 307.585938 37.851562 307.898438 38.125 308.167969 38.472656 C 308.433594 38.824219 308.566406 39.269531 308.566406 39.804688 C 308.566406 40.570312 308.277344 41.179688 307.695312 41.632812 C 307.113281 42.089844 306.347656 42.316406 305.394531 42.316406 C 304.371094 42.316406 303.375 42.046875 302.414062 41.515625 L 302.414062 39.734375 C 302.964844 40.105469 303.453125 40.375 303.878906 40.546875 C 304.304688 40.714844 304.757812 40.800781 305.234375 40.800781 C 306.042969 40.800781 306.449219 40.546875 306.449219 40.039062 C 306.449219 39.863281 306.367188 39.699219 306.203125 39.546875 C 306.042969 39.394531 305.65625 39.207031 305.035156 38.984375 C 304.417969 38.761719 303.929688 38.558594 303.570312 38.371094 C 303.207031 38.179688 302.894531 37.910156 302.632812 37.558594 C 302.371094 37.207031 302.238281 36.757812 302.238281 36.207031 C 302.238281 35.496094 302.523438 34.925781 303.097656 34.488281 C 303.671875 34.054688 304.4375 33.835938 305.394531 33.835938 C 306.277344 33.835938 307.210938 34.046875 308.191406 34.472656 Z M 308.191406 34.472656 "/>
<path style=" stroke:none;fill-rule:nonzero;fill:rgb(80.392157%,80%,80%);fill-opacity:1;" d="M 315.511719 34.472656 L 315.511719 36.089844 C 314.417969 35.597656 313.542969 35.351562 312.890625 35.351562 C 312.519531 35.351562 312.226562 35.410156 312.007812 35.535156 C 311.789062 35.660156 311.679688 35.824219 311.679688 36.03125 C 311.679688 36.1875 311.757812 36.339844 311.917969 36.480469 C 312.074219 36.621094 312.457031 36.808594 313.070312 37.03125 C 313.683594 37.253906 314.171875 37.464844 314.535156 37.65625 C 314.90625 37.851562 315.21875 38.125 315.488281 38.472656 C 315.753906 38.824219 315.886719 39.269531 315.886719 39.804688 C 315.886719 40.570312 315.597656 41.179688 315.015625 41.632812 C 314.429688 42.089844 313.667969 42.316406 312.714844 42.316406 C 311.691406 42.316406 310.695312 42.046875 309.730469 41.515625 L 309.730469 39.734375 C 310.285156 40.105469 310.773438 40.375 311.199219 40.546875 C 311.625 40.714844 312.078125 40.800781 312.554688 40.800781 C 313.363281 40.800781 313.769531 40.546875 313.769531 40.039062 C 313.769531 39.863281 313.6875 39.699219 313.523438 39.546875 C 313.363281 39.394531 312.972656 39.207031 312.355469 38.984375 C 311.738281 38.761719 311.25 38.558594 310.886719 38.371094 C 310.527344 38.179688 310.214844 37.910156 309.953125 37.558594 C 309.691406 37.207031 309.558594 36.757812 309.558594 36.207031 C 309.558594 35.496094 309.84375 34.925781 310.417969 34.488281 C 310.992188 34.054688 311.753906 33.835938 312.714844 33.835938 C 313.597656 33.835938 314.53125 34.046875 315.511719 34.472656 Z M 315.511719 34.472656 "/>
<path style=" stroke:none;fill-rule:nonzero;fill:rgb(80.392157%,80%,80%);fill-opacity:1;" d="M 319.351562 33.941406 L 319.351562 42.207031 L 317.292969 42.207031 L 317.292969 33.941406 Z M 319.351562 33.941406 "/>
<path style=" stroke:none;fill-rule:nonzero;fill:rgb(80.392157%,80%,80%);fill-opacity:1;" d="M 325.644531 33.835938 C 327.050781 33.835938 328.191406 34.261719 329.066406 35.109375 C 329.9375 35.960938 330.371094 36.949219 330.371094 38.078125 C 330.371094 39.222656 329.929688 40.214844 329.046875 41.054688 C 328.164062 41.894531 327.027344 42.316406 325.644531 42.316406 C 324.242188 42.316406 323.101562 41.898438 322.222656 41.0625 C 321.34375 40.226562 320.902344 39.230469 320.902344 38.078125 C 320.902344 36.945312 321.339844 35.957031 322.214844 35.109375 C 323.089844 34.257812 324.230469 33.835938 325.644531 33.835938 Z M 325.644531 40.597656 C 326.425781 40.597656 327.054688 40.367188 327.53125 39.902344 C 328.007812 39.4375 328.25 38.832031 328.25 38.078125 C 328.25 37.320312 328.007812 36.710938 327.53125 36.25 C 327.054688 35.785156 326.425781 35.554688 325.644531 35.554688 C 324.859375 35.554688 324.226562 35.785156 323.746094 36.25 C 323.269531 36.710938 323.027344 37.320312 323.027344 38.078125 C 323.027344 38.832031 323.269531 39.441406 323.746094 39.902344 C 324.226562 40.367188 324.859375 40.597656 325.644531 40.597656 Z M 325.644531 40.597656 "/>
<path style=" stroke:none;fill-rule:nonzero;fill:rgb(80.392157%,80%,80%);fill-opacity:1;" d="M 340.238281 33.941406 L 340.238281 42.207031 L 338.5 42.207031 L 333.933594 36.910156 L 333.933594 42.207031 L 331.875 42.207031 L 331.875 33.941406 L 333.765625 33.941406 L 338.179688 38.996094 L 338.179688 33.941406 Z M 340.238281 33.941406 "/>
<path style=" stroke:none;fill-rule:nonzero;fill:rgb(80.392157%,80%,80%);fill-opacity:1;" d="M 346.933594 33.941406 L 350.605469 42.207031 L 348.390625 42.207031 L 347.710938 40.574219 L 344.007812 40.574219 L 343.390625 42.207031 L 341.207031 42.207031 L 344.546875 33.941406 Z M 347.109375 39.132812 L 345.769531 35.917969 L 344.554688 39.132812 Z M 347.109375 39.132812 "/>
<path style=" stroke:none;fill-rule:nonzero;fill:rgb(80.392157%,80%,80%);fill-opacity:1;" d="M 357.863281 40.695312 L 357.863281 42.207031 L 351.558594 42.207031 L 351.558594 33.941406 L 353.617188 33.941406 L 353.617188 40.695312 Z M 357.863281 40.695312 "/>
<path style=" stroke:none;fill-rule:nonzero;fill:rgb(80.392157%,80%,80%);fill-opacity:1;" d="M 358.683594 43.640625 L 358.683594 43.421875 C 358.863281 43.25 358.984375 43.082031 359.054688 42.910156 C 359.128906 42.738281 359.167969 42.503906 359.179688 42.207031 C 358.761719 42.085938 358.554688 41.828125 358.554688 41.433594 C 358.554688 41.222656 358.625 41.035156 358.769531 40.878906 C 358.914062 40.726562 359.082031 40.648438 359.28125 40.648438 C 359.519531 40.648438 359.71875 40.753906 359.871094 40.96875 C 360.027344 41.179688 360.101562 41.453125 360.101562 41.785156 C 360.101562 42.222656 359.976562 42.605469 359.726562 42.9375 C 359.472656 43.265625 359.125 43.503906 358.683594 43.640625 Z M 358.683594 43.640625 "/>
<path style=" stroke:none;fill-rule:nonzero;fill:rgb(80.392157%,80%,80%);fill-opacity:1;" d="M 363.828125 33.941406 L 365.011719 33.941406 L 365.011719 42.207031 L 363.828125 42.207031 Z M 363.828125 33.941406 "/>
<path style=" stroke:none;fill-rule:nonzero;fill:rgb(80.392157%,80%,80%);fill-opacity:1;" d="M 367.253906 40.890625 C 367.453125 40.890625 367.625 40.957031 367.769531 41.097656 C 367.910156 41.234375 367.980469 41.402344 367.980469 41.605469 C 367.980469 41.800781 367.910156 41.96875 367.769531 42.101562 C 367.628906 42.238281 367.457031 42.304688 367.253906 42.304688 C 367.050781 42.304688 366.882812 42.238281 366.746094 42.101562 C 366.605469 41.96875 366.535156 41.800781 366.535156 41.605469 C 366.535156 41.402344 366.605469 41.234375 366.746094 41.097656 C 366.882812 40.957031 367.050781 40.890625 367.253906 40.890625 Z M 367.253906 40.890625 "/>
<path style=" stroke:none;fill-rule:nonzero;fill:rgb(80.392157%,80%,80%);fill-opacity:1;" d="M 369.4375 42.207031 L 369.4375 33.929688 L 372.058594 33.929688 C 372.847656 33.929688 373.476562 34.140625 373.945312 34.566406 C 374.417969 34.992188 374.652344 35.566406 374.652344 36.285156 C 374.652344 36.765625 374.53125 37.191406 374.292969 37.5625 C 374.050781 37.933594 373.71875 38.203125 373.304688 38.371094 C 372.882812 38.539062 372.285156 38.621094 371.503906 38.621094 L 370.628906 38.621094 L 370.628906 42.207031 Z M 371.851562 34.984375 L 370.628906 34.984375 L 370.628906 37.570312 L 371.921875 37.570312 C 372.40625 37.570312 372.777344 37.457031 373.035156 37.230469 C 373.296875 37 373.425781 36.675781 373.425781 36.253906 C 373.425781 35.40625 372.902344 34.984375 371.851562 34.984375 Z M 371.851562 34.984375 "/>
<path style=" stroke:none;fill-rule:nonzero;fill:rgb(80.392157%,80%,80%);fill-opacity:1;" d="M 374.273438 40.890625 C 374.472656 40.890625 374.644531 40.957031 374.785156 41.097656 C 374.929688 41.234375 375 41.402344 375 41.605469 C 375 41.800781 374.929688 41.96875 374.789062 42.101562 C 374.648438 42.238281 374.476562 42.304688 374.273438 42.304688 C 374.070312 42.304688 373.902344 42.238281 373.761719 42.101562 C 373.625 41.96875 373.554688 41.800781 373.554688 41.605469 C 373.554688 41.402344 373.625 41.234375 373.761719 41.097656 C 373.902344 40.957031 374.070312 40.890625 374.273438 40.890625 Z M 374.273438 40.890625 "/>
</g>
</svg>
